HIERARCHY
ROOT Hips
{
	OFFSET -14.64140 90.27770 -84.91600
	CHANNELS 6 Xposition Yposition Zposition Zrotation Xrotation Yrotation
	JOINT Spine
	{
		OFFSET 0.00000 13.20850 -1.60436
		CHANNELS 3 Zrotation Xrotation Yrotation
		JOINT Spine1
		{
			OFFSET 0.00000 8.61716 0.00000
			CHANNELS 3 Zrotation Xrotation Yrotation
			JOINT Spine2
			{
				OFFSET 0.00000 8.61717 0.00000
				CHANNELS 3 Zrotation Xrotation Yrotation
				JOINT Spine3
				{
					OFFSET 0.00000 8.61717 0.00000
					CHANNELS 3 Zrotation Xrotation Yrotation
					JOINT Neck
					{
						OFFSET 0.00000 11.07920 1.10792
						CHANNELS 3 Zrotation Xrotation Yrotation
						JOINT Neck1
						{
							OFFSET 0.00000 7.08032 0.00000
							CHANNELS 3 Zrotation Xrotation Yrotation
							JOINT Head
							{
								OFFSET 0.00000 7.08031 0.00000
								CHANNELS 3 Zrotation Xrotation Yrotation
								End site
								{
									OFFSET 0.00000 0.00000 0.00000
								}
							}
						}
					}
					JOINT RightShoulder
					{
						OFFSET -0.01000 7.91373 5.19711
						CHANNELS 3 Zrotation Xrotation Yrotation
						JOINT RightArm
						{
							OFFSET -18.41580 0.00000 0.00000
							CHANNELS 3 Zrotation Xrotation Yrotation
							JOINT RightForeArm
							{
								OFFSET -29.11090 0.00000 0.00000
								CHANNELS 3 Zrotation Xrotation Yrotation
								JOINT RightHand
								{
									OFFSET -24.65040 0.00000 0.00000
									CHANNELS 3 Zrotation Xrotation Yrotation
									JOINT RightHandThumb1
									{
										OFFSET -5.35114 -0.85590 3.97906
										CHANNELS 3 Zrotation Xrotation Yrotation
										JOINT RightHandThumb2
										{
											OFFSET -4.52789 0.00000 0.00000
											CHANNELS 3 Zrotation Xrotation Yrotation
											JOINT RightHandThumb3
											{
												OFFSET -2.46976 0.00000 0.00000
												CHANNELS 3 Zrotation Xrotation Yrotation
												End site
												{
													OFFSET 0.00000 0.00000 0.00000
												}
											}
										}
									}
									JOINT RightHandIndex1
									{
										OFFSET -14.26970 0.00000 2.88139
										CHANNELS 3 Zrotation Xrotation Yrotation
										JOINT RightHandIndex2
										{
											OFFSET -5.48836 0.00000 0.00000
											CHANNELS 3 Zrotation Xrotation Yrotation
											JOINT RightHandIndex3
											{
												OFFSET -3.01859 0.00000 0.00000
												CHANNELS 3 Zrotation Xrotation Yrotation
												End site
												{
													OFFSET 0.00000 0.00000 0.00000
												}
											}
										}
									}
									JOINT RightHandMiddle1
									{
										OFFSET -14.26970 0.00000 -0.09147
										CHANNELS 3 Zrotation Xrotation Yrotation
										JOINT RightHandMiddle2
										{
											OFFSET -6.17441 0.00000 0.00000
											CHANNELS 3 Zrotation Xrotation Yrotation
											JOINT RightHandMiddle3
											{
												OFFSET -3.56743 0.00000 0.00000
												CHANNELS 3 Zrotation Xrotation Yrotation
												End site
												{
													OFFSET 0.00000 0.00000 0.00000
												}
											}
										}
									}
									JOINT RightHandRing1
									{
										OFFSET -12.69180 0.00000 -3.06433
										CHANNELS 3 Zrotation Xrotation Yrotation
										JOINT RightHandRing2
										{
											OFFSET -5.62556 0.00000 0.00000
											CHANNELS 3 Zrotation Xrotation Yrotation
											JOINT RightHandRing3
											{
												OFFSET -3.56744 0.00000 0.00000
												CHANNELS 3 Zrotation Xrotation Yrotation
												End site
												{
													OFFSET 0.00000 0.00000 0.00000
												}
											}
										}
									}
									JOINT RightHandPinky1
									{
										OFFSET -11.11390 0.00000 -6.03719
										CHANNELS 3 Zrotation Xrotation Yrotation
										JOINT RightHandPinky2
										{
											OFFSET -4.52789 0.00000 0.00000
											CHANNELS 3 Zrotation Xrotation Yrotation
											JOINT RightHandPinky3
											{
												OFFSET -2.46976 0.00000 0.00000
												CHANNELS 3 Zrotation Xrotation Yrotation
												End site
												{
													OFFSET 0.00000 0.00000 0.00000
												}
											}
										}
									}
								}
							}
						}
					}
					JOINT LeftShoulder
					{
						OFFSET 0.01000 7.91373 5.19711
						CHANNELS 3 Zrotation Xrotation Yrotation
						JOINT LeftArm
						{
							OFFSET 18.41580 0.00000 0.00000
							CHANNELS 3 Zrotation Xrotation Yrotation
							JOINT LeftForeArm
							{
								OFFSET 29.11090 0.00000 0.00000
								CHANNELS 3 Zrotation Xrotation Yrotation
								JOINT LeftHand
								{
									OFFSET 24.65040 0.00000 0.00000
									CHANNELS 3 Zrotation Xrotation Yrotation
									JOINT LeftHandThumb1
									{
										OFFSET 5.35114 -0.85590 3.97906
										CHANNELS 3 Zrotation Xrotation Yrotation
										JOINT LeftHandThumb2
										{
											OFFSET 4.52789 0.00000 0.00000
											CHANNELS 3 Zrotation Xrotation Yrotation
											JOINT LeftHandThumb3
											{
												OFFSET 2.46977 0.00000 0.00000
												CHANNELS 3 Zrotation Xrotation Yrotation
												End site
												{
													OFFSET 0.00000 0.00000 0.00000
												}
											}
										}
									}
									JOINT LeftHandIndex1
									{
										OFFSET 14.26970 0.00000 2.88139
										CHANNELS 3 Zrotation Xrotation Yrotation
										JOINT LeftHandIndex2
										{
											OFFSET 5.48836 0.00000 0.00000
											CHANNELS 3 Zrotation Xrotation Yrotation
											JOINT LeftHandIndex3
											{
												OFFSET 3.01859 0.00000 0.00000
												CHANNELS 3 Zrotation Xrotation Yrotation
												End site
												{
													OFFSET 0.00000 0.00000 0.00000
												}
											}
										}
									}
									JOINT LeftHandMiddle1
									{
										OFFSET 14.26970 0.00000 -0.09147
										CHANNELS 3 Zrotation Xrotation Yrotation
										JOINT LeftHandMiddle2
										{
											OFFSET 6.17440 0.00000 0.00000
											CHANNELS 3 Zrotation Xrotation Yrotation
											JOINT LeftHandMiddle3
											{
												OFFSET 3.56744 0.00000 0.00000
												CHANNELS 3 Zrotation Xrotation Yrotation
												End site
												{
													OFFSET 0.00000 0.00000 0.00000
												}
											}
										}
									}
									JOINT LeftHandRing1
									{
										OFFSET 12.69180 0.00000 -3.06433
										CHANNELS 3 Zrotation Xrotation Yrotation
										JOINT LeftHandRing2
										{
											OFFSET 5.62556 0.00000 0.00000
											CHANNELS 3 Zrotation Xrotation Yrotation
											JOINT LeftHandRing3
											{
												OFFSET 3.56744 0.00000 0.00000
												CHANNELS 3 Zrotation Xrotation Yrotation
												End site
												{
													OFFSET 0.00000 0.00000 0.00000
												}
											}
										}
									}
									JOINT LeftHandPinky1
									{
										OFFSET 11.11390 0.00000 -6.03719
										CHANNELS 3 Zrotation Xrotation Yrotation
										JOINT LeftHandPinky2
										{
											OFFSET 4.52789 0.00000 0.00000
											CHANNELS 3 Zrotation Xrotation Yrotation
											JOINT LeftHandPinky3
											{
												OFFSET 2.46976 0.00000 0.00000
												CHANNELS 3 Zrotation Xrotation Yrotation
												End site
												{
													OFFSET 0.00000 0.00000 0.00000
												}
											}
										}
									}
								}
							}
						}
					}
					JOINT pCube4
					{
						OFFSET 0.00000 10.91090 1.10792
						CHANNELS 3 Zrotation Xrotation Yrotation
						End site
						{
							OFFSET 0.00000 0.00000 0.00000
						}
					}
				}
			}
		}
	}
	JOINT RightUpLeg
	{
		OFFSET -9.98441 0.00000 0.00000
		CHANNELS 3 Zrotation Xrotation Yrotation
		JOINT RightLeg
		{
			OFFSET 0.00000 -42.11790 0.00000
			CHANNELS 3 Zrotation Xrotation Yrotation
			JOINT RightFoot
			{
				OFFSET 0.00000 -45.00020 -0.00001
				CHANNELS 3 Zrotation Xrotation Yrotation
				JOINT RightForeFoot
				{
					OFFSET 0.00000 -3.74820 0.00000
					CHANNELS 3 Zrotation Xrotation Yrotation
					JOINT RightToeBase
					{
						OFFSET 0.00000 0.06325 14.43120
						CHANNELS 3 Zrotation Xrotation Yrotation
						End site
						{
							OFFSET 0.00000 0.00000 0.00000
						}
					}
				}
			}
		}
	}
	JOINT LeftUpLeg
	{
		OFFSET 9.98441 0.00000 0.00000
		CHANNELS 3 Zrotation Xrotation Yrotation
		JOINT LeftLeg
		{
			OFFSET 0.00000 -42.11800 0.00000
			CHANNELS 3 Zrotation Xrotation Yrotation
			JOINT LeftFoot
			{
				OFFSET 0.00000 -45.00070 0.00000
				CHANNELS 3 Zrotation Xrotation Yrotation
				JOINT LeftForeFoot
				{
					OFFSET 0.00000 -3.74824 0.00000
					CHANNELS 3 Zrotation Xrotation Yrotation
					JOINT LeftToeBase
					{
						OFFSET 0.00000 0.06325 14.43110
						CHANNELS 3 Zrotation Xrotation Yrotation
						End site
						{
							OFFSET 0.00000 0.00000 0.00000
						}
					}
				}
			}
		}
	}
}
MOTION
Frames: 4
Frame Time: 0.050000
-0.0038608866405584275 -0.04203947661177343 -0.0065541376710633375 0.049629914893293735 -0.0381986391373144 0.04447325967690738 0.24331042562682115 3.574788315942978 -1.3155253427488773 -1.0020291155650372 3.5554181042932074 0.4877259671882725 -1.034868644030241 -1.0707004077833921 0.845423544993991 -1.3947413451787398 -0.3651730589081661 -0.38279866822641095 -0.5921033969774578 11.497773966995906 1.2845386475011593 -0.016216433731338048 -0.41171969000957415 1.4688782425551734 -0.22302249427728935 -15.69937924484982 0.13465757081956423 -9.004391716575839 3.383289908184728 -14.567390187731997 62.8287225739989 -19.606048148294434 27.590951159684597 20.218309131745585 -4.669167453601025 80.94281235344546 16.340233513855537 -0.5239693447675038 -4.682968344380348 4.513677787572684 -0.09531069603530357 -1.6145509293869937 -0.033342885824399884 0.017472093429075027 -56.27312895523105 0.038879741245227514 0.011612689577380032 -56.21165889645931 -38.767465333826685 0.006633791349834969 0.049163494584625884 -0.01518214012905097 0.004541502127577307 -0.010986841426686112 -0.013857636261903401 -0.020375126883889403 0.005307040892540818 -36.72282126084102 0.021902351488747553 0.0186082135074648 -0.022155890605879608 -0.029896643712940967 -0.030168780331312588 -0.012796479572827766 0.015851267348397927 -0.014096117916406558 -19.77763717213183 0.03875333150648966 0.0006237633718506529 -1.4274323977147182e-05 -0.0004704877816233157 0.01148739539312456 0.015424804828847496 -0.014549611622919055 0.006649165117044892 24.01475265126762 0.04002931395780229 -0.047522527482607484 28.851296714625903 -0.016496288110533858 0.043927654035914324 28.901582027920345 0.016406908731505306 0.025163638540037583 7.435027893923517 1.8742006038972934 13.152875246221587 -62.3112749204637 16.425900477243363 -18.260152456169816 8.020406386456667 -8.456444118660318 -50.60632843675077 -17.661303947098546 -0.5609471058981961 3.460842365716785 -0.5207069189977781 0.10423204984529058 -8.139251018526604 -0.033593464247598945 -0.023207975185574617 44.598289191788616 0.015674993702394453 0.036694186247687 44.56742829148416 12.42815874843461 0.004282582396829098 -0.03773849454784718 -0.01398738482343318 0.04979979321834006 -0.0329319304064768 0.03894629406166601 0.005730969059165808 -0.011193334436145515 11.073312948651512 -0.007862820949288661 -0.018778923652423563 0.0373358075825073 -0.008205738646842034 -0.024033617856601436 -0.018555701658646385 0.012401123043120736 0.018386387483123896 4.815489481585909 0.00647439906856098 -0.049593671672630624 -0.01803628508762611 -0.010102152138457478 -0.04259244258055034 0.02292127569287967 0.011513114473779621 -0.04949932956304814 -5.5761432478063755 0.025521854191857134 0.03512353917003687 -6.708705121144236 0.03456858655653488 -0.017116976108240214 -6.684120909794742 0.025544710190235773 0.04377935473614543 -0.024757974555859402 -0.03344022155593616 -0.025616845145924317 8.040698136655285 3.4774411107269003 -19.25891020607101 0.003863079395152957 10.417674680046327 0.05416574675198692 -5.62316129335307 -15.667190500440945 3.1655464166104745 0.04434302724774992 -0.029519708988001075 -0.026929667428304386 -0.03635968750310801 4.700558413988019 0.02195384193647358 12.43283763830871 -8.25531247652458 6.860611440295885 0.003161567453837921 46.4071692508582 0.027456683033631028 -4.322273394464953 -14.737337926563947 -3.823309545450478 0.02061919852978447 -0.019226566294805694 -0.04721519395903386 0.025821797342759835 -10.723019781678374 -0.0382743493833043 
-0.019864782761453113 -0.03859501066761065 -0.025582719548887835 -0.0022879970277461365 -0.026559984286877582 0.02291752791546902 0.40494597868552196 3.556887237236681 -1.4340834984334092 -1.0363655417856652 3.476314034799049 0.4458232107825812 -1.0814061566163036 -0.9566148522229293 0.808885344686073 -1.2072588138196045 -0.36751332085661015 -0.46159411430611996 -0.2942067449792026 11.296581493960376 0.5889570049456979 0.02567431088157915 -0.533438642974745 -0.1714120256500012 0.0982219018810156 -15.90765164985997 -0.0172881257661295 -9.360271842144513 3.4617161099362797 -14.963395160929238 63.259046710823526 -21.566509448869493 27.384924971690786 19.28281541098893 -4.006664195482918 80.62144671945529 15.370535281677181 -0.5045936053972612 -4.30338097803556 4.551761801632795 -0.13807980138003834 -1.5488069472620791 -0.0042067975157404095 -0.017885737291965905 -56.253212610253264 -0.003709508877428429 -0.018644790999153366 -56.281010749153346 -38.7719567843378 0.03445400409316133 -0.04926945695727051 0.011539758489870633 -0.020661082870026982 0.03440833058962006 -0.01750317988154194 -0.04319979757909884 -0.03747231887200615 -36.699108205209555 -0.03266295713554448 0.030166188260789924 -0.0011437736655511312 0.014236515461118726 -0.0021267335642947073 -0.006848889828941372 0.01724518023973976 0.013152348834321426 -19.749086006076404 0.01567486106959762 -0.001091811293415959 0.041176497936447246 -0.018152070292921946 -0.044522589132195214 0.013647667387093752 0.0054432578592138224 0.008018311960350365 24.04800735303415 0.04881240549290341 0.005285160726796997 28.82457450885176 -0.006300842689939749 0.00497792492227291 28.81948868141659 0.04398859327554624 0.018703113352667354 7.1915328011277175 1.8742081832943114 13.029586101542382 -62.83112455583256 16.895991834820855 -17.296288427225097 6.874090487754051 -7.646960403658609 -50.448164717856955 -17.31799612001797 -1.1140410802481895 3.7032156883539105 -0.44051115329947216 0.11218464948394541 -8.106789247960036 0.01453565230492279 0.01505614564181698 44.5445898843064 -0.02712172887022521 0.011144657542849531 44.56017297859575 12.45854232531199 0.017377507914258947 0.02629198262541776 -0.016762419588060795 -0.0005678674971720183 -0.020094655004386435 0.03771505529343732 0.0413849893338759 -0.03693623590004524 11.063981320874422 -0.004574064070512873 -0.016561247419530713 0.04021884895874399 -0.044762821139008854 -0.04565748463172735 0.04491783481115305 -0.02604442586654584 -0.02890662816007108 4.817815075682544 0.019620238834759038 0.024628678227950423 -0.03587836685038824 -0.03424481528750999 -0.007551511924574059 0.019748726125791555 -0.016590038788267196 0.02516754898996246 -5.576548695457089 -0.021308130910085647 -0.024776472068761133 -6.743570283782856 -0.017817016806482906 0.015464372527368427 -6.721203561017784 -0.0351425899365843 0.023164539579194968 0.008312942513945553 -0.013469602694414298 0.0460486873438135 8.083272133709334 3.504161069712444 -19.20526196619592 -0.01496777726776446 10.353959768285138 0.05955954427939052 -5.6077105734276484 -15.68369872282707 3.205100089702326 -0.018199976804093368 -0.0012070623311181252 0.009576244092022448 0.014549159145110018 4.726090395625243 0.037038436966330274 12.484715213033557 -8.241940633387744 6.918926616591202 0.018218557344491824 46.37048843430436 0.0035387562900069756 -4.351376638562578 -14.749392204571432 -3.803192048671627 -0.029943082358933438 -0.004190192843595374 -0.010298202121199975 -0.02276118400372524 -10.733656906407338 -0.020875298374221835 
0.03995038267908415 -0.04671020923303992 0.0118519934449685 0.025495529524940254 0.03030160438970693 0.016378227567842497 0.5585976045991997 3.7678292899665067 -1.4381461470301542 -1.0206736686476767 3.4957393403825736 0.4888539007796982 -1.0977349748837837 -0.9072323356879165 0.600281723137625 -0.9615512588137285 -0.3693165796408579 -0.4156999161803979 -0.08963510741194411 11.069170446548304 0.08500053308939351 0.08288302004652309 -0.7259892852355769 -1.0512597953356706 0.2137093730728727 -16.21549717717364 -0.04848700918352704 -9.1219339119176 3.307534937550635 -15.264320051383772 64.4085229544153 -22.36007128687739 25.114417450377108 19.513472563162175 -2.997804258146921 80.09830019177538 14.509559122755272 -0.46281698742038374 -4.108480782445453 4.514323491877867 -0.09903236983882194 -1.6188861376387258 0.014688677360132773 0.0024482630449543298 -56.27038639378373 -0.0033640607005237825 -0.03018966962014746 -56.25769907889493 -38.74819865405572 0.04039341474973686 0.04494599853076284 -0.017239961983888077 0.0433345823216281 -0.029064368970366454 0.029105608019832533 -0.0023957891940424624 -0.03506436965554587 -36.68787097623387 -0.009168299656472685 0.00010943884643226853 0.04265681089998308 0.036388764175175566 0.03941654544954912 0.03886027153326244 -0.041283378641519736 -0.03615184524997186 -19.763465678469814 -0.03198235133569605 0.044760719642764096 -0.002116216777537731 -0.031096379831272166 0.02544043586334699 -0.04633639125572202 -0.024511321842826898 0.018742016011318936 24.08036503000911 -2.524463231828504e-05 -0.027144981451831827 28.89790939554817 -0.0001940091450473647 0.04763895504029465 28.87044751356531 0.030187361508358164 0.02948719633409527 6.743647487979623 1.8132745372817831 12.977154490342286 -63.407922228662365 17.71210422376751 -16.28821319369789 5.418773816324369 -6.505996272932046 -51.044767604524274 -16.781151026021313 -1.6847444459377319 3.9990819689325456 -0.4755349951810494 0.07076727041262812 -8.095010299684523 -0.037440678294700755 -0.041477560985776464 44.56552158523502 0.03342669209719583 0.02402936506836247 44.5342736814215 12.424326664051568 0.037058371331446335 0.01088133893046846 -0.02718680566825301 0.013673925926772426 -0.01642327523243377 0.02060961225404934 0.042469226473676354 -0.02583813152784405 11.06265028436367 0.03309623162981961 0.03624705373401035 0.01986444708903554 -0.02966432642545135 0.03455662050244788 -0.031215261644768868 0.02012195719498209 -0.04722528307437651 4.80515794991401 -0.0039585408069194835 0.007689460196533957 0.036251967021513676 0.04488030023353488 -0.022551145308941152 -0.030297844454576197 0.015423468443094595 0.026364171729685814 -5.5835571461919615 -0.0036761427377333196 -0.027845206856764698 -6.6956848850870365 0.019980574281687525 0.004182788315287035 -6.714987847367434 -0.037392774930639215 -0.04400337991163686 0.005999305982111279 -0.004726761576645067 -0.009600404206995159 8.016959300114404 3.521746304715902 -19.26665693361547 0.0015047753120780273 10.377510161976245 -0.00449294124068934 -5.5997956370791275 -15.63533344453144 3.234464123913311 0.04399851739993007 0.00010628889430267214 0.03900060693258874 -0.0028281658958530654 4.66661207958906 0.03263796624901981 12.48817998411758 -8.19320553994071 6.9050356171577585 0.0384055481692079 46.39392575398847 -0.03457978568551868 -4.343577043719377 -14.707728767121866 -3.8568259392525914 -0.048632052188800186 -0.03895165171915502 -0.04685891069257885 0.03447092277012512 -10.717147524230965 -0.03638868423403175 
0.04097562249119878 -0.02684006176016593 -0.03316636231620176 0.01489806070916505 -0.026641479119699774 -0.03207679285139702 0.6136236934303029 4.156953623364211 -1.4617766726746761 -1.0415175440892066 3.5589820882031438 0.48299010688559857 -1.0690879168798146 -0.7319663943171285 0.3258525947367127 -0.7013662961204794 -0.2717558557291253 -0.47984701157592347 -0.009724972821635751 10.886928041540553 -0.32867467258018207 0.08765751235292912 -0.9532944039756058 -1.6115773407180938 0.311309986431712 -16.69569220691788 -0.1308132574966299 -8.65959140569264 3.198358105526343 -15.5279867477076 65.61602119059069 -22.66977788468719 22.12229817182972 20.431748760619136 -2.1424082323648808 78.92024751088476 13.860203113903387 -0.4513220474611512 -3.9123176477543824 4.500051969183891 -0.17577033727261138 -1.5728749592257925 0.0231817809615224 0.031249345797895706 -56.268682288573515 0.04567519447393372 -0.008611441094175706 -56.24353762853172 -38.79029393511187 -0.03246945304578813 0.019544245037090357 -0.04395994478871271 0.0009774904392709925 0.032500905705734696 -0.01635540321347709 0.024529143130012605 -0.0056979531246664295 -36.6920804387566 -0.029156110037767607 0.029587900261314377 -0.04130996753686062 0.02992126218757002 -0.013731286947735805 0.027448181172079218 0.010534224301066273 -0.04265948242264227 -19.801588362278284 0.0229842507343022 -0.01652726288203518 -0.0378776388529187 0.01961832266577359 -0.01790613298433792 0.011803351414542848 0.010624780121423394 -0.0416365110868533 24.09457287631777 -0.03465349768079471 0.027246647101462233 28.85150000056507 -0.042627610915627265 0.021561277548618436 28.85023147903685 -0.04159076084660195 -0.04079245035249107 6.303999767830938 1.67703663497792 12.921060408716398 -63.804882841874154 18.728676595141167 -15.516532867709142 3.6891780953029505 -5.185424044864352 -52.43041407318801 -15.98213693214158 -2.039830110657469 4.073038398998696 -0.45118015893136393 0.0906888773225842 -8.141466083528496 -0.04234094754679254 -0.021854655456138353 44.53390209592038 0.00460952827472314 0.019216730462050337 44.523158779277104 12.50301576394707 0.023008676916963025 0.02447717147730155 0.005253187966144496 0.010844316656749864 -0.031591484002416965 -0.010132641147291864 -0.002618371745702291 -0.0024791707202294526 11.105155455834998 0.010554903529357054 0.012766082692109286 0.043407875814457667 -0.010399388767524418 -0.049344295433457315 -0.03745526541749813 -0.021944075282694982 0.047520807214194605 4.797418595957922 -0.014230893999372789 0.045256059454743744 -0.040681788792903156 0.003389685508442243 0.01020211045218063 -0.026114709976769037 -0.03294702071585512 0.02427845060078693 -5.589511704861577 0.009188508247340202 0.008680261646984233 -6.67804756309667 0.03468052184956537 0.020824080394816685 -6.702622946945588 0.016816832597101868 -0.01856839127397517 -0.02539639113862286 -0.013987254622161821 0.02301857018781605 8.031818400601084 3.4489850652099827 -19.266523610867036 0.0012235349554658812 10.345141952113874 0.0022098122935681457 -5.583861924152546 -15.687868840383903 3.1650600965531757 0.016003170071099252 -0.022615985194705625 -0.04793149205369411 0.00203284041187653 4.653748605760288 -0.013934833258660058 12.426799511248964 -8.251579473243137 6.8577703285372715 -0.018776344203407493 46.33371303280656 0.03809877907291083 -4.353564650193411 -14.742930901727041 -3.845173495163567 -0.030075068272498225 0.004883652605230145 -0.0035003749207020637 -0.044576044308737114 -10.780720791992492 -0.00036737437765656635 
